<svg width="441" height="439" viewBox="0 0 441 439" fill="none" xmlns="http://www.w3.org/2000/svg">
<path fill-rule="evenodd" clip-rule="evenodd" d="M133.329 136.37C169.556 163.811 176.017 88.0671 212.338 107.715C314.128 162.779 290.667 56.7855 347.287 90.269C435.696 142.552 299.299 354.619 267.372 363.174C237.551 371.164 216.2 365.034 187.625 339.006C159.051 312.979 138.774 294.874 110.809 286.887C83.2593 279.019 46.2905 263.863 30.5403 205.082C24.9231 184.119 11.7983 97.2001 38.0669 81.4291C58.9329 68.9017 110.214 118.86 133.329 136.37Z" fill="#FAE8FF"/>
<path fill-rule="evenodd" clip-rule="evenodd" d="M148.329 163.441C184.556 190.882 191.017 115.138 227.338 134.786C329.128 189.85 305.667 83.8565 362.287 117.34C450.696 169.623 314.299 381.69 282.372 390.245C252.551 398.235 231.2 392.105 202.625 366.077C174.051 340.05 153.774 321.945 125.809 313.958C98.2593 306.09 61.2905 290.934 45.5403 232.153C39.9231 211.19 26.7983 124.271 53.0669 108.5C73.9329 95.9727 125.214 145.931 148.329 163.441Z" stroke="#C026D3"/>
</svg>
