<svg width="1440" height="766" viewBox="0 0 1440 766" fill="none" xmlns="http://www.w3.org/2000/svg">
<path fill-rule="evenodd" clip-rule="evenodd" d="M-24.6708 624.37C11.5558 651.811 18.0168 576.067 54.3375 595.715C156.128 650.779 132.667 544.785 189.287 578.269C277.696 630.552 141.299 842.619 109.372 851.174C79.5514 859.164 58.1998 853.034 29.6254 827.006C1.05111 800.979 -19.2265 782.874 -47.191 774.887C-74.7407 767.019 -111.71 751.863 -127.46 693.082C-133.077 672.119 -146.202 585.2 -119.933 569.429C-99.0671 556.902 -47.7864 606.86 -24.6708 624.37Z" fill="#FAE8FF"/>
<path fill-rule="evenodd" clip-rule="evenodd" d="M-9.67079 651.441C26.5558 678.882 33.0168 603.138 69.3375 622.786C171.128 677.85 147.667 571.857 204.287 605.34C292.696 657.623 156.299 869.69 124.372 878.245C94.5514 886.235 73.1998 880.105 44.6254 854.077C16.0511 828.05 -4.22647 809.945 -32.191 801.958C-59.7407 794.09 -96.7095 778.934 -112.46 720.153C-118.077 699.19 -131.202 612.271 -104.933 596.5C-84.0671 583.973 -32.7864 633.931 -9.67079 651.441Z" stroke="#C026D3"/>
<path fill-rule="evenodd" clip-rule="evenodd" d="M1499.65 154.906C1530.16 124.404 1571.7 69.1186 1580.5 41.5027C1593.91 -0.549673 1576.61 -27.9208 1540.77 -48.0354C1473.52 -85.7778 1365.57 -53.0722 1327.49 -14.9974C1291.93 20.5661 1281.59 46.5347 1290.51 82.0477C1299.42 117.561 1305.29 142.747 1291.69 176.756C1278.3 210.261 1285.04 229.764 1305.36 236.844C1327.34 244.501 1357.67 243.186 1394.02 227.983C1431.11 212.473 1469.15 185.399 1499.65 154.906Z" fill="#FAE8FF"/>
<path fill-rule="evenodd" clip-rule="evenodd" d="M1499.65 111.906C1530.16 81.4045 1571.7 26.1186 1580.5 -1.49732C1593.91 -43.5497 1576.61 -70.9208 1540.77 -91.0354C1473.52 -128.778 1365.57 -96.0722 1327.49 -57.9974C1291.93 -22.4339 1281.59 3.53471 1290.51 39.0477C1299.42 74.5608 1305.29 99.7467 1291.69 133.756C1278.3 167.261 1285.04 186.764 1305.36 193.844C1327.34 201.501 1357.67 200.186 1394.02 184.983C1431.11 169.473 1469.15 142.399 1499.65 111.906Z" stroke="#C026D3"/>
</svg>
