<svg width="463" height="405" viewBox="0 0 463 405" fill="none" xmlns="http://www.w3.org/2000/svg">
<path fill-rule="evenodd" clip-rule="evenodd" d="M364.648 293.906C395.156 263.405 436.696 208.119 445.502 180.503C458.911 138.45 441.609 111.079 405.769 90.9646C338.52 53.2222 230.567 85.9278 192.492 124.003C156.929 159.566 146.593 185.535 155.509 221.048C164.425 256.561 170.285 281.747 156.694 315.756C143.304 349.261 150.039 368.764 170.361 375.844C192.34 383.501 222.67 382.186 259.022 366.983C296.108 351.473 334.147 324.399 364.648 293.906Z" fill="#FAE8FF"/>
<path fill-rule="evenodd" clip-rule="evenodd" d="M364.648 250.906C395.156 220.405 436.696 165.119 445.502 137.503C458.911 95.4503 441.609 68.0792 405.769 47.9646C338.52 10.2222 230.567 42.9278 192.492 81.0026C156.929 116.566 146.593 142.535 155.509 178.048C164.425 213.561 170.285 238.747 156.694 272.756C143.304 306.261 150.039 325.764 170.36 332.844C192.34 340.501 222.669 339.186 259.021 323.983C296.108 308.473 334.147 281.399 364.648 250.906Z" stroke="#C026D3"/>
</svg>
